<svg width="111" height="128" viewBox="0 0 111 128" fill="none" xmlns="http://www.w3.org/2000/svg">
<g id="Group 1000001905" style="mix-blend-mode:overlay" opacity="0.15">
<path id="Vector" d="M105.236 96.8146L94.9751 115.301L78.0146 108.528L71.3823 105.879L76.6737 110.948L69.9875 122.996L48.3142 114.34L56.3449 99.8699L39.3844 93.0967L49.6405 74.6084L66.6056 81.3837L66.6072 81.3767L73.2365 84.0164L67.9491 78.9598L74.6327 66.915L96.305 75.5688L88.2743 90.0384L105.236 96.8146Z" fill="white"/>
<path id="Vector_2" d="M36.1477 64.682L23.8055 68.7618L19.9978 60.4981L18.5089 57.2665L18.383 61.0329L10.3393 63.6925L5.47423 53.1319L15.1346 49.9383L11.3269 41.6747L23.6682 37.5925L27.4768 45.8586L27.4805 45.8563L28.9723 49.0832L29.0943 45.323L37.1353 42.6642L42.0013 53.2233L32.3409 56.4168L36.1477 64.682Z" fill="white"/>
<path id="Vector_3" d="M81.6613 22.5998L90.1473 26.8132L86.3511 32.5401L84.8664 34.7795L87.4621 33.0908L92.9931 35.8365L88.1412 43.1546L81.4989 39.8569L77.7027 45.5837L69.2154 41.3718L73.0128 35.6435L73.0095 35.6427L74.4897 33.404L71.9001 35.0916L66.3709 32.347L71.2213 25.0291L77.8635 28.3269L81.6613 22.5998Z" fill="white"/>
<path id="Vector_4" d="M45.4095 0.170558L49.0309 2.61493L46.8202 5.063L45.9557 6.0203L47.2944 5.38262L49.6548 6.97557L46.8294 10.1038L43.9948 8.19063L41.7841 10.6387L38.162 8.19497L40.3734 5.74626L40.3719 5.7457L41.2343 4.7885L39.8985 5.42605L37.5389 3.83369L40.3635 0.705473L43.1981 2.61866L45.4095 0.170558Z" fill="white"/>
</g>
</svg>
