<svg width="100" height="29" viewBox="0 0 100 29" fill="none" xmlns="http://www.w3.org/2000/svg">
<path fill-rule="evenodd" clip-rule="evenodd" d="M58.6219 28.4351C56.2045 28.4234 53.7876 28.4244 51.3706 28.4253C49.3091 28.4261 47.2475 28.4269 45.1857 28.4199C38.1158 28.3857 32.3323 23.477 31.1886 16.5674C29.9633 9.17595 35.4892 1.74146 42.9914 0.819425C44.3215 0.65507 45.6731 0.656688 47.0238 0.658306C47.5336 0.658916 48.0434 0.659527 48.5518 0.651208C49.2419 0.640177 49.9319 0.643102 50.622 0.646027C51.3561 0.649139 52.0902 0.65225 52.8244 0.638559V6.12779H51.6451C51.6451 6.12779 49.3657 6.1158 48.0316 6.12779C47.7072 6.13188 47.3818 6.13118 47.0561 6.13047C45.9732 6.12811 44.8879 6.12576 43.8342 6.2998C39.6828 6.98912 36.8764 10.4736 36.9695 14.6614C37.0728 19.3778 40.6671 22.8699 45.428 22.8826C46.0815 22.8826 46.735 22.8816 47.3886 22.8806C49.1703 22.8779 50.9521 22.8751 52.7338 22.8927H52.8146L53.4715 24.4326L53.485 22.8651L53.484 22.8651C53.4632 20.9819 53.4641 20.8551 53.4712 19.8357V19.835C53.4735 19.4977 53.4766 19.0628 53.4797 18.4343C53.495 15.3343 50.8647 13.2962 50.8647 13.2962H59.443L59.4399 13.7862C59.4326 14.9506 59.4298 15.4083 59.4288 15.866C59.4282 16.1623 59.4283 16.4587 59.4285 16.9469C59.4287 17.3101 59.429 17.7796 59.429 18.4343C59.429 19.2506 59.4276 20.1228 59.4263 21.0212V21.0243V21.0255C59.4225 23.5043 59.4185 26.1821 59.4409 28.4351C59.4409 28.4351 59.2377 28.4388 58.6219 28.4351ZM87.7656 28.4806L89.2918 28.5274H89.8039C89.7785 27.529 89.7812 25.6634 89.7832 24.2131C89.784 23.703 89.7846 23.2442 89.784 22.8927H88.5816C85.7824 22.8927 83.3911 22.8878 80.8726 22.8827L80.8711 22.8827C79.5482 22.88 78.1902 22.8772 76.7195 22.875C76.2457 22.8739 75.7724 22.8469 75.3016 22.7941C73.3367 22.5616 71.5188 21.6445 70.1721 20.2062C68.8254 18.7679 68.0374 16.9019 67.9486 14.9409C67.7905 10.7747 70.6491 7.03592 74.6565 6.35166C75.8362 6.15036 77.0531 6.14344 78.2624 6.13657C78.5195 6.13511 78.7763 6.13365 79.0323 6.13032C81.8527 6.09238 83.9029 8.67006 83.9029 8.67006C83.9705 8.17046 83.9029 0.638559 83.9029 0.638559C82.9503 0.652608 81.9972 0.65023 81.0443 0.647852C80.3671 0.646162 79.6901 0.644473 79.0132 0.648676C78.5872 0.651251 78.1599 0.644305 77.7326 0.637358C76.6907 0.620419 75.6483 0.603474 74.6221 0.724565C66.4199 1.69467 60.9437 9.0343 62.3526 17.0873C63.4096 23.133 68.7901 28.1657 74.9676 28.4629L87.7656 28.4806ZM21.9052 28.4287H20.7232C20.4227 28.4287 20.1229 28.429 19.8238 28.4292C17.4963 28.4311 15.2073 28.433 12.8742 28.3187C6.6802 28.0164 1.14408 22.98 0.181438 16.9178C-1.09358 8.86355 4.37497 1.6289 12.5491 0.722036C20.5715 -0.163323 27.3584 5.46377 28.2739 12.854C28.363 13.6265 28.4055 14.4037 28.4014 15.1812C28.4108 18.4098 28.4129 21.6384 28.4078 24.8671V28.4287H21.9052ZM22.3808 17.9916C22.3808 19.4177 22.3832 21.4336 22.3908 22.8631L22.4005 22.8631L22.3967 24.4305L21.7231 22.8782C20.8305 22.8695 19.9372 22.8738 19.0441 22.8782H19.0441C17.0868 22.8878 15.131 22.8973 13.1879 22.7688C9.29909 22.5069 6.13449 19.0958 5.91137 15.228C5.68824 11.3603 7.82517 7.95922 11.2754 6.6805C16.5641 4.72007 22.2775 8.57644 22.3808 14.1871C22.3944 15.0324 22.3898 15.8799 22.3853 16.7259C22.383 17.1483 22.3808 17.5704 22.3808 17.9916Z" fill="white"/>
<path d="M99.999 10.5366L96.5872 6.63762L93.5107 9.28576L92.3076 10.3214L93.0645 8.77523L90.8411 6.23389L86.9098 9.6183L89.5802 12.6702L86.5037 15.3183L89.9146 19.2181L92.9919 16.5692L92.9928 16.5708L94.1958 15.5376L93.4389 17.0805L95.6615 19.621L99.5928 16.2374L96.9224 13.1856L99.999 10.5366Z" fill="white"/>
</svg>
