<svg width="550" height="210" viewBox="0 0 550 210" fill="none" xmlns="http://www.w3.org/2000/svg">
<path fill-rule="evenodd" clip-rule="evenodd" d="M322.437 152.953C309.142 152.889 295.849 152.894 282.556 152.899C271.217 152.903 259.878 152.908 248.538 152.869C209.653 152.681 177.844 125.684 171.553 87.6808C164.814 47.0276 195.207 6.13786 236.469 1.06665C243.785 0.162699 251.218 0.171601 258.647 0.180496C261.451 0.183854 264.255 0.187212 267.051 0.141458C270.847 0.0807867 274.642 0.0968744 278.437 0.112962C282.475 0.130076 286.513 0.147191 290.55 0.0718898V30.2627H284.064C284.064 30.2627 271.528 30.1967 264.19 30.2627C262.406 30.2852 260.616 30.2813 258.825 30.2774C252.869 30.2645 246.9 30.2515 241.104 31.2087C218.271 35 202.837 54.1649 203.349 77.1975C203.917 103.138 223.685 122.345 249.87 122.414C253.46 122.414 257.049 122.409 260.638 122.403L260.653 122.403C270.453 122.388 280.253 122.373 290.052 122.47H290.497L294.11 130.939L294.184 122.318L294.178 122.318C294.064 111.961 294.069 111.263 294.108 105.657V105.654C294.121 103.799 294.137 101.406 294.155 97.9484C294.239 80.8983 279.772 69.6889 279.772 69.6889H326.953L326.936 72.3823C326.896 78.7876 326.88 81.3051 326.875 83.8227C326.871 85.4522 326.872 87.0817 326.873 89.7655C326.874 91.7637 326.876 94.3463 326.876 97.9484C326.876 102.44 326.868 107.24 326.861 112.184V112.194V112.2C326.84 125.834 326.818 140.561 326.942 152.953C326.942 152.953 325.824 152.974 322.437 152.953ZM482.727 153.203L491.122 153.461H493.938C493.798 147.97 493.813 137.71 493.824 129.733V129.727C493.828 126.923 493.832 124.402 493.828 122.47H487.216C471.82 122.47 458.669 122.443 444.817 122.415L444.81 122.415L444.803 122.414C437.528 122.4 430.061 122.384 421.974 122.372C419.368 122.366 416.765 122.218 414.176 121.927C403.368 120.649 393.37 115.605 385.963 107.694C378.556 99.7834 374.222 89.5204 373.734 78.7348C372.864 55.8205 388.587 35.2574 410.627 31.494C417.115 30.3868 423.809 30.3488 430.459 30.311C431.874 30.3029 433.286 30.2949 434.694 30.2766C450.206 30.0679 461.483 44.2452 461.483 44.2452C461.854 41.4974 461.483 0.0718898 461.483 0.0718898C456.243 0.14916 451.001 0.13608 445.76 0.123C442.036 0.113708 438.312 0.104415 434.589 0.127532C432.246 0.141693 429.896 0.103492 427.546 0.0652855C421.815 -0.0278823 416.082 -0.12108 410.438 0.54492C365.326 5.88048 335.207 46.2485 342.956 90.5399C348.769 123.791 378.362 151.471 412.338 153.106L482.727 153.203ZM120.495 152.918H113.994C112.341 152.918 110.692 152.919 109.047 152.921C96.246 152.931 83.6564 152.941 70.8245 152.313C36.7573 150.65 6.30854 122.95 1.01402 89.6077C-5.99858 45.3093 24.0785 5.51875 69.0363 0.531015C113.16 -4.33846 150.488 26.6105 155.523 67.2568C156.013 71.5058 156.247 75.78 156.224 80.0566C156.275 97.8139 156.287 115.571 156.259 133.329V152.918H120.495ZM123.11 95.5137C123.11 103.358 123.124 114.447 123.166 122.309L123.22 122.309L123.199 130.93L119.493 122.39C114.584 122.342 109.671 122.366 104.759 122.39C93.9941 122.443 83.2369 122.495 72.5496 121.788C51.1611 120.348 33.7559 101.587 32.5287 80.314C31.3014 59.0413 43.0546 40.3355 62.0307 33.3026C91.119 22.5202 122.542 43.7303 123.11 74.5889C123.185 79.2377 123.16 83.8989 123.135 88.5519V88.5521C123.123 90.8756 123.11 93.1969 123.11 95.5137Z" fill="white"/>
<path d="M34.0894 205.053H24.7585L23.0247 209.34H16.657L26.3977 187.274H32.5447L42.317 209.34H35.8232L34.0894 205.053ZM32.261 200.451L29.4239 193.39L26.5868 200.451H32.261ZM44.4017 187.274H50.6433V204.391H61.1721V209.34H44.4017V187.274ZM78.403 197.834H83.9196V206.976C82.6586 207.88 81.2086 208.573 79.5693 209.057C77.9301 209.54 76.2909 209.782 74.6517 209.782C72.34 209.782 70.2595 209.298 68.4101 208.332C66.5607 207.344 65.1107 205.978 64.0599 204.234C63.0091 202.489 62.4837 200.514 62.4837 198.307C62.4837 196.101 63.0091 194.125 64.0599 192.381C65.1107 190.637 66.5712 189.281 68.4416 188.314C70.312 187.327 72.4241 186.833 74.7778 186.833C76.8373 186.833 78.6867 187.179 80.3259 187.873C81.9651 188.566 83.3311 189.565 84.4239 190.868L80.452 194.461C78.9599 192.822 77.1736 192.003 75.093 192.003C73.2016 192.003 71.678 192.58 70.5222 193.736C69.3663 194.871 68.7884 196.395 68.7884 198.307C68.7884 199.526 69.0511 200.619 69.5765 201.586C70.1019 202.531 70.8374 203.277 71.7831 203.824C72.7288 204.349 73.8111 204.612 75.03 204.612C76.2279 204.612 77.3522 204.37 78.403 203.887V197.834ZM105.908 204.517V209.34H88.192V187.274H105.498V192.097H94.3705V195.817H104.174V200.482H94.3705V204.517H105.908ZM119.333 203.477H115.929V209.34H109.687V187.274H119.774C121.771 187.274 123.505 187.61 124.976 188.283C126.447 188.934 127.582 189.88 128.38 191.12C129.179 192.339 129.578 193.778 129.578 195.439C129.578 197.036 129.2 198.433 128.443 199.631C127.708 200.808 126.646 201.733 125.259 202.405L130.019 209.34H123.336L119.333 203.477ZM123.273 195.439C123.273 194.409 122.948 193.61 122.296 193.043C121.645 192.475 120.678 192.192 119.396 192.192H115.929V198.654H119.396C120.678 198.654 121.645 198.381 122.296 197.834C122.948 197.267 123.273 196.468 123.273 195.439ZM133.337 187.274H139.578V209.34H133.337V187.274ZM159.119 205.053H149.788L148.054 209.34H141.686L151.427 187.274H157.574L167.346 209.34H160.852L159.119 205.053ZM157.29 200.451L154.453 193.39L151.616 200.451H157.29ZM193.704 197.834H199.221V206.976C197.96 207.88 196.51 208.573 194.871 209.057C193.231 209.54 191.592 209.782 189.953 209.782C187.641 209.782 185.561 209.298 183.711 208.332C181.862 207.344 180.412 205.978 179.361 204.234C178.31 202.489 177.785 200.514 177.785 198.307C177.785 196.101 178.31 194.125 179.361 192.381C180.412 190.637 181.873 189.281 183.743 188.314C185.613 187.327 187.725 186.833 190.079 186.833C192.139 186.833 193.988 187.179 195.627 187.873C197.266 188.566 198.632 189.565 199.725 190.868L195.753 194.461C194.261 192.822 192.475 192.003 190.394 192.003C188.503 192.003 186.979 192.58 185.824 193.736C184.668 194.871 184.09 196.395 184.09 198.307C184.09 199.526 184.352 200.619 184.878 201.586C185.403 202.531 186.139 203.277 187.084 203.824C188.03 204.349 189.112 204.612 190.331 204.612C191.529 204.612 192.654 204.37 193.704 203.887V197.834ZM218.278 205.053H208.947L207.213 209.34H200.845L210.586 187.274H216.733L226.505 209.34H220.011L218.278 205.053ZM216.449 200.451L213.612 193.39L210.775 200.451H216.449ZM248.513 209.34L248.45 197.645L242.775 207.165H240.001L234.359 197.96V209.34H228.59V187.274H233.728L241.483 200.009L249.049 187.274H254.187L254.25 209.34H248.513ZM276.698 204.517V209.34H258.982V187.274H276.288V192.097H265.16V195.817H274.964V200.482H265.16V204.517H276.698ZM300.967 209.782C298.656 209.782 296.575 209.298 294.726 208.332C292.897 207.344 291.458 205.978 290.407 204.234C289.356 202.489 288.831 200.514 288.831 198.307C288.831 196.101 289.356 194.125 290.407 192.381C291.458 190.637 292.897 189.281 294.726 188.314C296.575 187.327 298.656 186.833 300.967 186.833C302.985 186.833 304.803 187.19 306.421 187.904C308.039 188.619 309.384 189.649 310.456 190.994L306.484 194.587C305.055 192.864 303.321 192.003 301.282 192.003C300.085 192.003 299.013 192.265 298.067 192.791C297.142 193.316 296.417 194.062 295.892 195.029C295.388 195.974 295.135 197.067 295.135 198.307C295.135 199.547 295.388 200.65 295.892 201.617C296.417 202.563 297.142 203.298 298.067 203.824C299.013 204.349 300.085 204.612 301.282 204.612C303.321 204.612 305.055 203.75 306.484 202.027L310.456 205.621C309.384 206.966 308.039 207.995 306.421 208.71C304.803 209.424 302.985 209.782 300.967 209.782ZM334.548 187.274V209.34H328.307V200.734H319.795V209.34H313.554V187.274H319.795V195.565H328.307V187.274H334.548ZM354.051 205.053H344.72L342.986 209.34H336.618L346.359 187.274H352.506L362.278 209.34H355.784L354.051 205.053ZM352.222 200.451L349.385 193.39L346.548 200.451H352.222ZM364.363 187.274H370.605V204.391H381.133V209.34H364.363V187.274ZM383.919 187.274H390.16V204.391H400.689V209.34H383.919V187.274ZM421.19 204.517V209.34H403.474V187.274H420.78V192.097H409.653V195.817H419.456V200.482H409.653V204.517H421.19ZM445.963 187.274V209.34H440.825L431.085 197.582V209.34H424.969V187.274H430.107L439.848 199.032V187.274H445.963ZM465.466 197.834H470.982V206.976C469.721 207.88 468.271 208.573 466.632 209.057C464.993 209.54 463.354 209.782 461.715 209.782C459.403 209.782 457.322 209.298 455.473 208.332C453.624 207.344 452.173 205.978 451.123 204.234C450.072 202.489 449.547 200.514 449.547 198.307C449.547 196.101 450.072 194.125 451.123 192.381C452.173 190.637 453.634 189.281 455.504 188.314C457.375 187.327 459.487 186.833 461.841 186.833C463.9 186.833 465.75 187.179 467.389 187.873C469.028 188.566 470.394 189.565 471.487 190.868L467.515 194.461C466.023 192.822 464.236 192.003 462.156 192.003C460.264 192.003 458.741 192.58 457.585 193.736C456.429 194.871 455.851 196.395 455.851 198.307C455.851 199.526 456.114 200.619 456.639 201.586C457.165 202.531 457.9 203.277 458.846 203.824C459.792 204.349 460.874 204.612 462.093 204.612C463.291 204.612 464.415 204.37 465.466 203.887V197.834ZM492.971 204.517V209.34H475.255V187.274H492.561V192.097H481.433V195.817H491.237V200.482H481.433V204.517H492.971Z" fill="white"/>
<path d="M550 54.5131L531.235 33.0687L514.315 47.6335L507.698 53.3294L511.861 44.8255L499.632 30.8481L478.01 49.4624L492.697 66.2477L475.776 80.8125L494.536 102.261L511.461 87.6922L511.466 87.7011L518.083 82.0185L513.92 90.5046L526.144 104.478L547.766 85.8677L533.079 69.0824L550 54.5131Z" fill="white"/>
</svg>