<svg width="167" height="117" viewBox="0 0 167 117" fill="none" xmlns="http://www.w3.org/2000/svg">
<g id="logo">
<g id="MC">
<path id="Vector" d="M166.619 2.60048V84.5872C166.619 84.9316 166.55 85.2725 166.418 85.5906C166.285 85.9086 166.091 86.1975 165.845 86.4408C165.6 86.684 165.309 86.8768 164.989 87.0082C164.669 87.1395 164.326 87.2068 163.979 87.2062H97.3385C96.6397 87.2062 95.9696 86.9303 95.4755 86.4391C94.9814 85.948 94.7039 85.2818 94.7039 84.5872V82.869C94.7039 82.1756 94.98 81.5103 95.472 81.0187C95.9639 80.5271 96.6316 80.2491 97.3292 80.2454C101.098 80.2454 104.819 80.5272 108.532 80.5272C113.095 80.5272 117.937 80.2454 122.588 80.7627C125.074 81.0353 127.509 82.1484 130.204 82.6103C137.917 83.8848 145.796 83.7831 153.474 82.3101C154.011 82.2097 154.504 81.9454 154.884 81.5539C155.263 81.1624 155.511 80.6631 155.592 80.1253C156.415 74.4902 156.893 68.5132 157.586 62.7441C157.638 62.318 157.583 61.8857 157.427 61.4854C157.271 61.085 157.019 60.7289 156.692 60.4483C156.366 60.1677 155.974 59.9713 155.553 59.8763C155.132 59.7812 154.694 59.7906 154.277 59.9035C148.966 61.3492 143.758 62.7996 138.502 61.6725C129.181 59.6771 119.884 47.6632 125.362 35.6769C126.465 33.5153 127.948 31.5665 129.739 29.9217C131.516 28.3666 133.542 27.1176 135.733 26.2265C141.42 24.0833 148.144 25.0025 153.39 26.9794C153.819 27.1422 154.282 27.1907 154.736 27.1201C155.189 27.0495 155.616 26.8622 155.974 26.5769C156.332 26.2916 156.608 25.9181 156.776 25.4937C156.944 25.0692 156.997 24.6085 156.931 24.1572C156.085 18.3312 155.253 12.4912 154.435 6.63746C154.353 6.10204 154.106 5.60484 153.73 5.21322C153.353 4.8216 152.865 4.55449 152.331 4.44807C145.774 3.06238 139.102 2.78524 132.504 4.14322C130.352 4.60511 128.373 5.52891 126.287 5.75062C123.647 6.02314 120.822 5.87071 118.211 5.98619C111.557 6.27718 104.666 6.66979 97.3989 6.84993C97.0481 6.85795 96.6992 6.79609 96.3728 6.66801C96.0464 6.53993 95.7491 6.34821 95.4984 6.10416C95.2477 5.8601 95.0486 5.56864 94.913 5.24693C94.7773 4.92523 94.7078 4.5798 94.7085 4.23098V0.692846C94.6853 0.36028 94.6713 0.0415708 94.9362 8.12036e-10H163.984C164.68 -1.72044e-05 165.347 0.27337 165.84 0.760531C166.334 1.24769 166.614 1.9091 166.619 2.60048Z" fill="white"/>
<path id="Vector_2" d="M108.304 71.5567C109.002 72.3414 109.75 73.0805 110.544 73.7692C110.673 73.8872 110.763 74.0407 110.804 74.2102C110.844 74.3797 110.833 74.5573 110.771 74.7201C110.709 74.883 110.599 75.0238 110.456 75.1243C110.313 75.2248 110.143 75.2805 109.968 75.2842C105.122 75.4182 100.387 75.663 95.624 75.8893C95.5045 75.8962 95.3847 75.8788 95.2722 75.838C95.1597 75.7973 95.0568 75.7341 94.9697 75.6523C94.8827 75.5705 94.8134 75.4719 94.7661 75.3626C94.7188 75.2532 94.6945 75.1354 94.6947 75.0163V67.9724C94.6945 67.8497 94.7205 67.7283 94.7709 67.6163C94.8214 67.5043 94.8951 67.4041 94.9873 67.3225C95.0795 67.2409 95.1881 67.1797 95.3058 67.1428C95.4236 67.1059 95.5479 67.0943 95.6705 67.1086C99.016 67.492 102.143 66.462 104.606 67.4181C106.2 68.0324 107.231 70.3188 108.295 71.5752" fill="white"/>
<path id="Vector_3" d="M111.752 12.4245C110.767 14.6878 108.5 15.6901 107.041 17.4777C106.913 17.6297 106.755 17.7541 106.576 17.8431C106.398 17.932 106.204 17.9837 106.004 17.995C102.854 18.1751 99.5457 18.2029 96.1862 18.1844C95.7923 18.1819 95.4153 18.0247 95.1376 17.7469C94.8598 17.4691 94.704 17.0933 94.704 16.7017V13.0989C94.705 12.8988 94.7467 12.701 94.8265 12.5172C94.9063 12.3335 95.0225 12.1677 95.1683 12.0297C95.3141 11.8917 95.4863 11.7844 95.6748 11.7141C95.8633 11.6438 96.0641 11.6121 96.2652 11.6208C101.734 11.8194 108.16 10.1197 111.752 12.4245Z" fill="white"/>
<path id="Vector_4" d="M101.372 62.5833H95.5636C95.3307 62.5833 95.1073 62.4913 94.9426 62.3276C94.778 62.1639 94.6854 61.9418 94.6854 61.7103V51.9596C94.6854 51.7277 94.7778 51.5052 94.9424 51.3407C95.1069 51.1763 95.3303 51.0833 95.5636 51.082H97.4641C97.6597 51.0811 97.8501 51.1451 98.005 51.2639C98.1598 51.3827 98.2704 51.5496 98.319 51.7379C99.2483 55.4331 99.8199 59.4932 101.372 62.5833Z" fill="white"/>
<path id="Vector_5" d="M101.836 24.8495C101.748 26.9927 100.656 28.1382 99.9778 29.7087C99.89 29.92 99.7466 30.104 99.5627 30.2414C99.3787 30.3787 99.161 30.4643 98.9323 30.4893C98.003 30.577 96.9854 30.5539 96.0422 30.6186C95.8648 30.6333 95.6862 30.6112 95.5178 30.5539C95.3495 30.4965 95.1949 30.405 95.0639 30.2852C94.9329 30.1653 94.8283 30.0198 94.7567 29.8578C94.6852 29.6958 94.6482 29.5207 94.6482 29.3438V24.4846C94.6469 24.1497 94.7783 23.8277 95.0139 23.5883C95.2496 23.3488 95.5705 23.2112 95.9074 23.2052C98.463 23.159 100.786 23.353 101.799 24.8495" fill="white"/>
<path id="Vector_6" d="M95.703 36.8184H96.8925C97.0288 36.8188 97.1635 36.8468 97.2885 36.9006C97.4135 36.9545 97.5262 37.033 97.6196 37.1316C97.7131 37.2301 97.7854 37.3465 97.8322 37.4737C97.8789 37.6009 97.8991 37.7363 97.8915 37.8715C97.7661 39.9824 97.4641 41.9085 97.4594 44.1394C97.4562 44.3741 97.3688 44.5998 97.2128 44.776C97.0569 44.9522 96.8428 45.0671 96.6091 45.1002C96.3721 45.1371 96.1444 45.1972 95.9353 45.248C95.7886 45.2829 95.6357 45.2842 95.4884 45.252C95.341 45.2198 95.2029 45.1548 95.0844 45.0619C94.9659 44.969 94.8701 44.8506 94.8042 44.7156C94.7383 44.5807 94.7041 44.4326 94.704 44.2826V37.8161C94.7034 37.6853 94.7288 37.5556 94.7787 37.4346C94.8286 37.3136 94.9021 37.2036 94.9949 37.1109C95.0878 37.0182 95.1981 36.9446 95.3196 36.8944C95.4411 36.8442 95.5714 36.8184 95.703 36.8184Z" fill="white"/>
<path id="Vector_7" d="M86.6374 35.8983C87.1771 39.0655 87.5509 42.2584 87.7572 45.4642C87.7616 45.5357 87.7515 45.6074 87.7276 45.6749C87.7036 45.7425 87.6663 45.8046 87.6178 45.8576C87.5693 45.9105 87.5105 45.9533 87.4451 45.9833C87.3797 46.0133 87.3088 46.03 87.2368 46.0323C79.714 46.2263 66.2111 46.8453 63.4232 46.9561C63.2891 46.962 63.1576 46.9179 63.0545 46.8325C62.9514 46.747 62.884 46.6264 62.8656 46.4942L62.7262 45.0485L62.1082 46.6189C62.0717 46.7137 62.0084 46.7959 61.926 46.8557C61.8435 46.9155 61.7455 46.9504 61.6436 46.9561C59.0369 47.0624 42.3882 47.746 33.346 48.0785C33.1156 48.0909 32.8865 48.0369 32.6863 47.923C32.486 47.8091 32.323 47.6402 32.2169 47.4365V47.4134C32.1633 47.3128 32.0785 47.2319 31.9751 47.1829C31.8718 47.1338 31.7552 47.119 31.6428 47.1407C31.5303 47.1625 31.4279 47.2196 31.3505 47.3036C31.2732 47.3876 31.2251 47.4941 31.2133 47.6074C31.1203 48.5312 31.2133 49.515 31.1157 50.3788C29.9912 60.5128 28.5833 72.2542 27.4774 82.8086C27.4595 82.9367 27.3955 83.0541 27.2973 83.139C27.199 83.2239 27.0732 83.2706 26.9431 83.2705H1.07569C0.998797 83.2712 0.92265 83.2555 0.852448 83.2243C0.782246 83.1931 0.719644 83.1472 0.668915 83.0898C0.618186 83.0323 0.580527 82.9647 0.558508 82.8914C0.53649 82.8182 0.530631 82.7411 0.541333 82.6654C5.09031 57.2611 9.21181 31.3948 13.784 6.03203C13.7861 6.00127 13.7861 5.97041 13.784 5.93965V5.29299H36.8635C36.9847 5.29183 37.1029 5.33063 37.1996 5.40334C37.2963 5.47605 37.366 5.57856 37.3978 5.69484C37.6395 6.61864 38.1088 7.35306 38.3271 8.29533C38.3448 8.37405 38.3442 8.45573 38.3254 8.53418C38.3066 8.61263 38.27 8.68579 38.2185 8.74811C38.167 8.81044 38.1019 8.86028 38.0282 8.89387C37.9544 8.92746 37.8739 8.94392 37.7928 8.94198C35.9713 8.91427 34.6099 9.3346 32.6816 9.20526C34.1267 9.70873 36.4592 9.32998 38.3271 9.41312L38.7918 9.76416C40.051 13.0575 41.3335 16.3231 42.3836 19.8197L41.8911 20.5125C38.6989 20.6834 35.5624 20.9144 32.2123 20.9375C35.6844 21.3035 39.1759 21.4577 42.667 21.3994C42.7781 21.399 42.8866 21.4324 42.978 21.4951C43.0694 21.5579 43.1392 21.647 43.1782 21.7504C44.4188 25.0252 45.5014 28.434 46.8164 31.6581C46.8857 31.8359 46.9133 32.027 46.897 32.217C46.8807 32.4069 46.821 32.5907 46.7224 32.7542C46.6238 32.9178 46.4889 33.0567 46.328 33.1605C46.1672 33.2644 45.9846 33.3303 45.7942 33.3533C45.1948 33.4272 44.5814 33.4872 43.9634 33.538C43.8295 33.5542 43.7065 33.6197 43.6188 33.7216C43.5311 33.8235 43.485 33.9544 43.4897 34.0885C43.4944 34.2225 43.5494 34.3499 43.644 34.4455C43.7386 34.5412 43.8659 34.5981 44.0006 34.605C45.0832 34.6327 46.1473 34.6743 47.1881 34.7436C47.6528 34.6327 47.8572 34.7436 47.9827 34.9653C48.0283 35.0481 48.0955 35.1173 48.1773 35.1654C48.259 35.2136 48.3523 35.239 48.4473 35.239C48.5424 35.239 48.6357 35.2136 48.7174 35.1654C48.7992 35.1173 48.8664 35.0481 48.912 34.9653C48.9736 34.8691 49.0647 34.7952 49.1718 34.7544C49.2789 34.7137 49.3963 34.7082 49.5068 34.7389C61.769 35.2286 74.338 35.4179 86.6188 35.8937" fill="white"/>
<path id="Vector_8" d="M85.2526 22.7817C85.406 25.8534 85.9403 28.5324 86.182 31.5255C74.0126 32.0289 61.8619 32.5509 49.9946 33.373C49.3347 32.7264 50.1665 31.6409 50.4592 30.8419C51.3514 28.3984 52.5687 25.0497 53.7118 22.56C53.7118 22.2321 53.67 21.9041 53.9488 21.8672C64.529 22.0381 75.0116 22.3291 85.2852 22.791" fill="white"/>
<path id="Vector_9" d="M83.6448 10.5817C84.0119 12.7849 84.3185 15.0482 84.4904 17.4455L83.3613 18.6695C74.203 18.942 65.2398 19.3993 56.337 19.9166C56.147 19.9274 55.9573 19.8917 55.7845 19.8126C55.6118 19.7334 55.4612 19.6133 55.346 19.4628C55.2308 19.3123 55.1546 19.136 55.124 18.9493C55.0935 18.7627 55.1095 18.5714 55.1707 18.3924C56.0266 15.7318 57.0318 13.1211 58.1816 10.5724L59.2782 9.92578C67.2564 10.2953 75.6062 10.2768 83.6448 10.5817Z" fill="white"/>
<path id="Vector_10" d="M83.19 5.2936V6.67929C82.6231 7.5569 81.3685 7.31209 80.402 7.36752C73.6088 7.73704 66.0581 7.82941 58.9721 8.06036C59.5297 7.13657 59.5483 5.72316 60.3661 5.06727C67.8935 5.21969 76.0389 4.7578 83.1946 5.29822" fill="white"/>
<path id="Vector_11" d="M61.0529 49.2527C59.3476 53.9548 57.4425 58.4906 55.5282 62.9618L54.6964 63.5715C49.7525 63.9733 44.2324 63.8024 39.228 64.1488L38.2244 63.4791C36.6492 58.7585 34.7255 54.3843 33.1411 49.6684C33.092 49.5174 33.0801 49.3569 33.1062 49.2004C33.1324 49.0438 33.1959 48.8958 33.2915 48.7687C33.387 48.6416 33.5118 48.5391 33.6554 48.4698C33.799 48.4005 33.9573 48.3664 34.1168 48.3704C43.1358 48.6199 52.1826 48.86 61.0669 49.2573" fill="white"/>
<path id="Vector_12" d="M54.6041 65.3498C53.2101 68.9988 51.7604 72.5739 50.2874 76.1397L49.2094 76.8556H44.1261L43.0342 76.0797C41.8539 72.7771 40.46 69.687 39.3913 66.269C39.3348 66.0906 39.3226 65.9014 39.3557 65.7173C39.3887 65.5333 39.4661 65.3599 39.5811 65.212C39.6961 65.0641 39.8454 64.9461 40.0162 64.8679C40.1871 64.7897 40.3744 64.7538 40.5622 64.7632C45.1809 65.0265 50.1016 64.971 54.6041 65.3498Z" fill="white"/>
<path id="Vector_13" d="M49.5255 78.0012C49.177 79.2483 48.4335 80.3984 47.9131 81.6963C47.5693 82.5601 47.4485 83.6548 46.9838 84.4677L46.087 84.3523C45.469 82.283 44.5397 80.5231 43.9403 78.44L44.4468 77.8164C46.1521 77.8765 47.625 78.1767 49.5301 78.0335" fill="white"/>
<path id="Vector_14" d="M91.4097 85.1832L67.9167 85.7837C67.6148 85.7905 67.3212 85.6856 67.0927 85.4893C66.8643 85.2929 66.7175 85.0192 66.6807 84.7213L66.3229 79.9176C66.3015 79.7445 66.3178 79.5689 66.3708 79.4027C66.4238 79.2365 66.5121 79.0836 66.6298 78.9543C66.7475 78.825 66.8918 78.7225 67.0529 78.6536C67.214 78.5847 67.3882 78.551 67.5635 78.555L91.1495 79.1555C91.4317 79.1635 91.7024 79.2687 91.9151 79.4533C92.1279 79.6378 92.2695 79.8901 92.3157 80.167L92.5899 83.7744C92.6186 83.9461 92.6098 84.1219 92.564 84.2898C92.5182 84.4578 92.4365 84.6139 92.3245 84.7477C92.2125 84.8814 92.0728 84.9895 91.9149 85.0647C91.757 85.1398 91.5847 85.1803 91.4097 85.1832Z" fill="white"/>
<path id="Vector_15" d="M89.7274 75.9123L67.5633 76.5035C67.1716 76.5138 66.7904 76.3768 66.4958 76.12C66.2013 75.8631 66.015 75.5052 65.9742 75.1178L65.0449 67.0762C65.0189 66.8522 65.0424 66.6253 65.1136 66.4112C65.1849 66.1971 65.3022 66.001 65.4574 65.8366C65.6127 65.6722 65.8021 65.5433 66.0125 65.4591C66.2229 65.3748 66.4493 65.3372 66.6758 65.3487L88.8864 66.5127C89.2466 66.5307 89.5894 66.6728 89.8556 66.9148C90.1219 67.1567 90.2951 67.4833 90.3454 67.8383L91.2514 74.1386C91.284 74.3573 91.269 74.5803 91.2076 74.7927C91.1461 75.0051 91.0396 75.202 90.8952 75.37C90.7508 75.5381 90.5718 75.6734 90.3704 75.767C90.169 75.8605 89.9497 75.9101 89.7274 75.9123Z" fill="white"/>
<path id="Vector_16" d="M88.3612 51.3867L89.8434 60.7401C89.8805 60.9738 89.867 61.2126 89.8039 61.4407C89.7407 61.6687 89.6293 61.8808 89.4772 62.0627C89.325 62.2445 89.1355 62.392 88.9215 62.4953C88.7074 62.5986 88.4736 62.6553 88.2357 62.6616L66.2946 63.239C65.8842 63.2477 65.4848 63.1069 65.1715 62.8432C64.8583 62.5794 64.6529 62.2109 64.594 61.8071L63.0839 51.3082C63.05 51.0683 63.0692 50.8239 63.14 50.5922C63.2108 50.3604 63.3315 50.1467 63.4938 49.966C63.6561 49.7853 63.8561 49.642 64.0798 49.5459C64.3035 49.4499 64.5456 49.4034 64.7892 49.4098L86.7488 49.9825C87.1399 49.9936 87.5148 50.1399 87.8091 50.3962C88.1034 50.6525 88.2986 51.0027 88.3612 51.3867Z" fill="white"/>
</g>
<path id="Vector_17" d="M13.4585 116.264V107.281L9.90851 113.969H8.44019L4.90881 107.281V116.264H2.21381V102.583H5.09932L9.15112 110.348L13.2447 102.583H16.1117V116.264H13.4585Z" fill="white"/>
<path id="Vector_18" d="M23.8298 116.264V102.583H26.5015V116.264H23.8298Z" fill="white"/>
<path id="Vector_19" d="M33.3835 109.299C33.3868 107.578 34.025 105.918 35.1771 104.634C35.8034 103.937 36.5743 103.383 37.4366 103.011C38.2989 102.638 39.2322 102.456 40.1721 102.477C41.3229 102.446 42.4598 102.732 43.4572 103.304C44.3358 103.809 45.0464 104.559 45.5017 105.461L43.4665 106.869C43.261 106.395 42.9419 105.978 42.5372 105.655C42.1773 105.368 41.7657 105.151 41.3245 105.017C40.9189 104.896 40.4981 104.832 40.0746 104.828C39.4644 104.813 38.8604 104.951 38.3182 105.23C37.8325 105.491 37.4093 105.853 37.0775 106.292C36.7453 106.733 36.4937 107.229 36.3341 107.756C36.1686 108.286 36.0841 108.837 36.0832 109.391C36.0809 109.979 36.1783 110.563 36.3712 111.119C36.5551 111.658 36.8336 112.16 37.1937 112.602C37.545 113.027 37.9818 113.375 38.4761 113.622C38.9834 113.876 39.544 114.006 40.1117 114.001C40.5476 113.996 40.9801 113.924 41.3942 113.789C41.8397 113.64 42.2539 113.412 42.6162 113.114C43.0133 112.783 43.3309 112.368 43.5455 111.9L45.7155 113.17C45.4283 113.857 44.9634 114.456 44.368 114.906C43.7517 115.381 43.0566 115.746 42.3142 115.983C41.5858 116.224 40.8236 116.348 40.056 116.352C39.1266 116.371 38.2059 116.17 37.3703 115.766C36.5691 115.369 35.854 114.819 35.2654 114.149C34.669 113.478 34.1971 112.707 33.8714 111.872C33.5467 111.053 33.3812 110.18 33.3835 109.299Z" fill="white"/>
<path id="Vector_20" d="M52.3644 116.265V102.583H58.47C59.0697 102.577 59.6628 102.708 60.2031 102.967C60.7314 103.22 61.2049 103.573 61.5971 104.006C61.9933 104.434 62.3081 104.93 62.5264 105.47C62.7375 105.998 62.8463 106.56 62.847 107.128C62.8484 107.695 62.7461 108.257 62.545 108.787C62.3506 109.3 62.057 109.771 61.6807 110.172C61.312 110.568 60.8641 110.883 60.3658 111.096L63.5068 116.242H60.5609L57.7265 111.655H55.0547V116.242L52.3644 116.265ZM55.0408 109.336H58.391C58.7144 109.342 59.0298 109.236 59.2831 109.036C59.5523 108.823 59.7659 108.549 59.9057 108.237C60.0638 107.885 60.143 107.504 60.1381 107.119C60.1445 106.723 60.0502 106.333 59.8639 105.983C59.7036 105.67 59.4711 105.399 59.1855 105.193C58.929 105.003 58.6177 104.901 58.298 104.902H55.0454L55.0408 109.336Z" fill="white"/>
<path id="Vector_21" d="M75.8992 116.36C74.9548 116.37 74.0206 116.166 73.1671 115.765C72.3618 115.39 71.6422 114.856 71.0529 114.194C70.4537 113.541 69.9811 112.783 69.6589 111.959C69.3441 111.145 69.1865 110.28 69.1942 109.409C69.1911 108.512 69.3663 107.624 69.71 106.795C70.0377 105.98 70.5098 105.231 71.104 104.582C71.7074 103.931 72.4357 103.406 73.246 103.039C74.0919 102.657 75.0118 102.463 75.941 102.471C76.8841 102.46 77.8173 102.664 78.6686 103.067C79.4703 103.453 80.1848 103.997 80.7688 104.665C81.3458 105.327 81.8018 106.083 82.1163 106.901C82.4271 107.714 82.5846 108.576 82.581 109.446C82.5844 110.333 82.4172 111.212 82.0884 112.037C81.7642 112.855 81.2918 113.606 80.6945 114.254C80.0923 114.9 79.3674 115.421 78.5617 115.788C77.7253 116.165 76.8176 116.36 75.8992 116.36ZM71.9032 109.432C71.9027 110.014 71.9953 110.592 72.1773 111.146C72.3475 111.68 72.6135 112.179 72.9626 112.619C73.3136 113.062 73.7633 113.417 74.2761 113.658C74.7889 113.898 75.3509 114.017 75.9178 114.005C76.5169 114.019 77.1098 113.882 77.6417 113.608C78.1279 113.349 78.5538 112.992 78.8916 112.559C79.2385 112.115 79.4985 111.611 79.6583 111.072C79.8233 110.536 79.9078 109.979 79.9092 109.418C79.9115 108.838 79.8206 108.261 79.6397 107.709C79.4662 107.177 79.197 106.681 78.8451 106.245C78.5023 105.82 78.0732 105.473 77.5859 105.224C77.0617 104.968 76.4834 104.839 75.8992 104.85C75.3098 104.838 74.7269 104.973 74.2032 105.243C73.7136 105.497 73.2843 105.853 72.944 106.286C72.5963 106.722 72.3332 107.219 72.168 107.751C71.9919 108.291 71.9025 108.855 71.9032 109.423V109.432Z" fill="white"/>
<path id="Vector_22" d="M98.1937 109.299C98.1913 107.577 98.8302 105.915 99.9872 104.634C100.613 103.937 101.383 103.384 102.245 103.012C103.106 102.639 104.038 102.457 104.978 102.477C106.128 102.446 107.265 102.732 108.263 103.304C109.142 103.808 109.853 104.558 110.307 105.461L108.272 106.869C108.066 106.395 107.747 105.978 107.343 105.655C106.983 105.368 106.571 105.151 106.13 105.017C105.724 104.896 105.304 104.832 104.88 104.828C104.271 104.813 103.669 104.952 103.128 105.23C102.643 105.491 102.219 105.853 101.888 106.292C101.554 106.733 101.301 107.228 101.14 107.756C100.974 108.286 100.89 108.837 100.889 109.391C100.889 109.979 100.986 110.563 101.177 111.119C101.36 111.659 101.641 112.161 102.004 112.602C102.352 113.028 102.788 113.376 103.282 113.622C103.791 113.876 104.353 114.006 104.922 114.001C105.356 113.996 105.787 113.924 106.2 113.789C106.645 113.64 107.059 113.412 107.422 113.114C107.819 112.783 108.136 112.368 108.351 111.9L110.521 113.17C110.234 113.857 109.769 114.456 109.173 114.906C108.558 115.382 107.863 115.747 107.12 115.983C106.391 116.224 105.629 116.348 104.861 116.352C103.93 116.364 103.009 116.155 102.176 115.743C101.375 115.346 100.659 114.796 100.071 114.126C99.4745 113.455 99.0026 112.684 98.6769 111.849C98.3565 111.036 98.1926 110.172 98.1937 109.299Z" fill="white"/>
<path id="Vector_23" d="M117.17 116.264V102.583H119.846V113.918H126.862V116.251L117.17 116.264Z" fill="white"/>
<path id="Vector_24" d="M138.786 116.361C137.827 116.387 136.874 116.2 135.998 115.812C135.261 115.469 134.622 114.948 134.139 114.297C133.659 113.64 133.307 112.898 133.103 112.112C132.879 111.279 132.768 110.42 132.773 109.558V102.583H135.426V109.558C135.424 110.111 135.486 110.663 135.612 111.202C135.722 111.707 135.912 112.192 136.174 112.639C136.417 113.057 136.768 113.403 137.192 113.641C137.679 113.901 138.228 114.029 138.781 114.01C139.344 114.032 139.903 113.901 140.398 113.632C140.818 113.385 141.168 113.037 141.415 112.62C141.683 112.176 141.873 111.69 141.978 111.184C142.097 110.65 142.156 110.104 142.154 109.558V102.583H144.812V109.558C144.817 110.445 144.7 111.33 144.464 112.186C144.249 112.973 143.887 113.713 143.395 114.366C142.905 114.998 142.267 115.5 141.536 115.83C140.669 116.203 139.73 116.384 138.786 116.361Z" fill="white"/>
<path id="Vector_25" d="M163.445 112.754C163.468 113.442 163.257 114.117 162.846 114.671C162.425 115.207 161.864 115.618 161.224 115.858C160.519 116.135 159.766 116.273 159.008 116.264H152.354V102.583H159.723C160.323 102.568 160.911 102.747 161.401 103.091C161.869 103.429 162.242 103.88 162.483 104.403C162.736 104.923 162.866 105.493 162.864 106.07C162.864 106.72 162.689 107.358 162.358 107.918C162.022 108.504 161.506 108.967 160.885 109.239C161.625 109.444 162.277 109.884 162.744 110.491C163.225 111.146 163.472 111.943 163.445 112.754ZM155.03 104.855V108.306H158.599C158.884 108.307 159.164 108.234 159.412 108.093C159.659 107.949 159.863 107.742 160.002 107.493C160.159 107.211 160.236 106.891 160.225 106.569C160.237 106.249 160.169 105.932 160.025 105.645C159.895 105.406 159.709 105.201 159.482 105.049C159.253 104.903 158.987 104.826 158.715 104.828L155.03 104.855ZM160.75 112.246C160.754 111.925 160.681 111.609 160.536 111.322C160.404 111.057 160.207 110.829 159.965 110.657C159.724 110.49 159.436 110.402 159.142 110.407H155.03V114.033H158.989C159.299 114.035 159.604 113.951 159.867 113.788C160.131 113.633 160.349 113.412 160.499 113.146C160.663 112.871 160.75 112.557 160.75 112.236V112.246Z" fill="white"/>
</g>
</svg>
