<svg width="170" height="45" viewBox="0 0 170 45" fill="none" xmlns="http://www.w3.org/2000/svg">
<path d="M5.10423 1.2312H39.5798L42.5896 3.69374H169V39.2638L163.801 44.4625H5.10423H1V38.7165L2.09446 37.6221V27.7719L1 26.9511V1.2312H5.10423Z" fill="#0E0E17" fill-opacity="0.8"/>
<path d="M5.10423 1.2312H39.5798L42.5896 3.69374H169V39.2638L163.801 44.4625H5.10423M5.10423 1.2312V44.4625M5.10423 1.2312H1V26.9511L2.09446 27.7719V37.6221L1 38.7165V44.4625H5.10423" stroke="#FFB800" stroke-width="1.09446"/>
<path d="M4.10423 0.231201H38.5798L41.5896 2.69374H168V38.2638L162.801 43.4625H4.10423H0V37.7165L1.09446 36.6221V26.7719L0 25.9511V0.231201H4.10423Z" fill="#FFB800" fill-opacity="0.1"/>
</svg>
